<?xml version="1.0" standalone="no"?>
<!DOCTYPE svg PUBLIC "-//W3C//DTD SVG 20010904//EN"
 "http://www.w3.org/TR/2001/REC-SVG-20010904/DTD/svg10.dtd">
<svg version="1.0" xmlns="http://www.w3.org/2000/svg"
 width="1315.000000pt" height="331.000000pt" viewBox="0 0 1315.000000 331.000000"
 preserveAspectRatio="xMidYMid meet">
<metadata>
Created by potrace 1.16, written by Peter Selinger 2001-2019
</metadata>
<g transform="translate(0.000000,331.000000) scale(0.100000,-0.100000)"
fill="#000000" stroke="none">
<path d="M1445 3299 c-166 -21 -435 -106 -575 -181 -453 -245 -759 -662 -846
-1154 -24 -138 -24 -411 0 -559 34 -207 129 -452 244 -625 100 -151 263 -315
442 -444 152 -110 377 -203 602 -248 96 -20 143 -23 318 -23 175 1 220 4 310
23 334 73 616 228 853 470 47 47 60 67 64 99 8 60 -15 78 -109 87 -42 4 -113
4 -159 0 l-84 -7 -75 -60 c-138 -111 -243 -168 -403 -222 -382 -127 -779 -74
-1124 151 -108 70 -270 230 -343 338 -80 121 -157 288 -192 423 -29 109 -31
131 -32 293 -1 191 10 264 64 435 61 189 158 344 309 495 261 259 603 394 956
377 212 -11 380 -53 547 -139 119 -60 202 -123 292 -218 206 -219 309 -491
309 -820 0 -109 -3 -135 -27 -205 -31 -92 -81 -170 -129 -202 -45 -31 -118
-43 -258 -43 -110 0 -119 2 -146 24 -52 43 -53 60 -53 640 0 523 0 536 -20
556 -18 18 -33 20 -153 20 -197 0 -177 60 -176 -541 0 -621 5 -704 47 -792 50
-109 136 -180 257 -214 71 -21 409 -30 484 -13 223 49 410 248 482 515 19 69
22 107 23 270 0 159 -4 206 -22 288 -101 455 -345 798 -717 1010 -115 65 -237
113 -388 152 -204 52 -392 66 -572 44z"/>
<path d="M3773 3133 l-203 -3 0 -1460 0 -1460 215 0 215 0 2 941 3 942 281
-939 280 -939 222 -3 222 -2 0 1460 0 1460 -215 0 -215 0 0 -847 c0 -465 -2
-844 -4 -842 -2 2 -115 378 -251 834 -136 457 -253 836 -260 843 -16 17 -49
19 -292 15z"/>
<path d="M5480 1670 l0 -1460 620 0 620 0 0 205 0 205 -395 0 -395 0 0 430 0
430 320 0 320 0 0 210 0 210 -320 0 -320 0 0 410 0 410 395 0 395 0 0 205 0
205 -620 0 -620 0 0 -1460z"/>
<path d="M6900 2920 l0 -210 235 0 235 0 0 -1250 0 -1250 225 0 225 0 0 1250
0 1250 230 0 230 0 0 210 0 210 -690 0 -690 0 0 -210z"/>
<path d="M8570 1670 l0 -1460 590 0 590 0 0 210 0 210 -370 0 -370 0 0 1250 0
1250 -220 0 -220 0 0 -1460z"/>
<path d="M10365 3108 c-10 -45 -495 -2866 -495 -2882 0 -14 25 -16 223 -16
l223 0 33 223 c18 122 39 268 48 324 l16 103 237 0 238 0 5 -22 c3 -13 25
-159 48 -325 l44 -303 227 0 c202 0 228 2 228 16 0 16 -485 2836 -495 2882
l-5 22 -285 0 -285 0 -5 -22z m375 -1213 c44 -308 83 -572 86 -587 l6 -28
-182 0 c-168 0 -181 1 -176 18 2 9 41 273 86 587 45 314 84 577 87 585 8 20 1
64 93 -575z"/>
<path d="M11760 1670 l0 -1462 428 5 c474 4 481 5 622 74 102 49 204 152 254
256 62 129 80 230 80 462 0 172 -3 215 -23 305 -12 58 -36 134 -53 169 -44 91
-132 177 -229 220 l-75 34 67 34 c113 56 191 159 225 295 21 87 30 368 15 492
-35 295 -181 478 -438 548 -72 20 -109 22 -475 26 l-398 4 0 -1462z m714 1028
c54 -17 110 -74 130 -134 28 -88 39 -226 26 -336 -18 -159 -52 -228 -133 -270
-35 -19 -62 -23 -164 -26 l-123 -4 0 391 0 391 111 0 c62 0 130 -6 153 -12z
m30 -1210 c77 -16 137 -80 166 -176 21 -68 22 -88 18 -280 -4 -188 -6 -212
-27 -258 -28 -63 -61 -96 -126 -125 -40 -18 -74 -23 -187 -27 l-138 -5 0 448
0 448 121 -7 c67 -4 144 -12 173 -18z"/>
<path d="M1049 2170 c-205 -32 -352 -164 -402 -360 -20 -76 -31 -365 -22 -572
10 -225 4 -218 180 -218 180 0 165 -31 165 348 0 192 4 322 11 347 38 136 239
165 306 43 16 -30 18 -66 20 -351 0 -175 4 -328 7 -341 10 -40 49 -51 172 -50
105 0 116 2 139 24 l25 23 0 306 c0 370 -8 460 -48 545 -72 154 -219 246 -417
259 -44 3 -105 2 -136 -3z"/>
</g>
</svg>
